<svg width="67" height="42" viewBox="0 0 67 42" fill="none" xmlns="http://www.w3.org/2000/svg">
<path d="M23.3035 27.067C23.3559 27.1596 23.429 27.2109 23.5334 27.2109C23.6379 27.2109 23.711 27.1596 23.7634 27.067L24.0245 26.5737L23.0215 24.6615C22.9693 24.569 22.9693 24.4663 23.0215 24.3634C23.0736 24.2606 23.1468 24.2195 23.2513 24.2195H23.617C23.7215 24.2195 23.7946 24.2709 23.847 24.3634L24.5156 25.6382L25.1844 24.3634C25.2366 24.2709 25.3097 24.2195 25.4143 24.2195H25.7799C25.8845 24.2195 25.9576 24.2709 26.0098 24.3634C26.062 24.456 26.062 24.5587 26.0098 24.6615L25.0068 26.5737L25.268 27.067C25.3202 27.1596 25.3933 27.2109 25.4979 27.2109C25.6022 27.2109 25.6754 27.1596 25.7277 27.067L27.1278 24.3531C27.18 24.2606 27.2531 24.2092 27.3577 24.2092H27.713C27.8174 24.2092 27.8905 24.2606 27.9429 24.3531C27.9951 24.456 27.9951 24.5485 27.9429 24.6512L25.8321 28.6912C25.7799 28.7838 25.7068 28.8351 25.6022 28.8351H25.3514C25.2471 28.8351 25.174 28.7838 25.1216 28.6912L24.735 27.9409C24.6828 27.838 24.6097 27.7867 24.5051 27.7867C24.4008 27.7867 24.3275 27.838 24.2753 27.9409L23.8887 28.6912C23.8365 28.7838 23.7634 28.8351 23.6589 28.8351H23.408C23.3035 28.8351 23.2304 28.7838 23.1782 28.6912L21.0676 24.6512C21.0152 24.5586 21.0152 24.456 21.0676 24.3531C21.1198 24.2503 21.1929 24.2092 21.2975 24.2092H21.6526C21.7572 24.2092 21.8303 24.2606 21.8825 24.3531L23.3035 27.067Z" fill="white"/>
<path d="M28.5279 24.5073C28.5279 24.4253 28.5489 24.3634 28.601 24.3018C28.6532 24.2401 28.7159 24.2195 28.789 24.2195H33.3865C33.4596 24.2195 33.5224 24.2505 33.5746 24.3018C33.6268 24.3634 33.6582 24.4253 33.6582 24.5176V24.8569C33.6582 24.9392 33.6268 25.0008 33.5746 25.0625C33.5224 25.1243 33.4596 25.1447 33.3865 25.1447H29.6355C29.5623 25.1447 29.4995 25.1756 29.4473 25.227C29.3951 25.2886 29.3742 25.3504 29.3742 25.4428V25.7718C29.3742 25.8541 29.3951 25.9157 29.4473 25.9775C29.4995 26.0392 29.5623 26.0598 29.6355 26.0598H33.3969C33.4701 26.0598 33.5327 26.0905 33.5851 26.1418C33.6373 26.1934 33.6687 26.2653 33.6687 26.3579V26.697C33.6687 26.7792 33.6373 26.8512 33.5851 26.913C33.5327 26.9747 33.4701 26.9951 33.3969 26.9951H29.0086C28.9354 26.9951 28.8726 27.026 28.8204 27.0773L28.5279 27.396V24.5073ZM28.7995 27.9101H33.3969C33.4701 27.9101 33.5327 27.9409 33.5851 27.9924C33.6373 28.054 33.6687 28.1157 33.6687 28.1979V28.5473C33.6687 28.6296 33.6373 28.6914 33.5851 28.7531C33.5327 28.8147 33.4701 28.8353 33.3969 28.8353H28.7995C28.7263 28.8353 28.6637 28.8044 28.6115 28.7531C28.5591 28.6914 28.5384 28.6296 28.5384 28.5473V28.1979C28.5384 28.1157 28.5591 28.054 28.6115 27.9924C28.6532 27.9409 28.7159 27.9101 28.7995 27.9101Z" fill="white"/>
<path d="M34.4312 24.5073C34.4312 24.4253 34.4521 24.3634 34.5043 24.3018C34.5565 24.2401 34.6193 24.2195 34.6925 24.2195H39.29C39.3631 24.2195 39.4257 24.2505 39.4779 24.3018C39.5301 24.3634 39.5615 24.4253 39.5615 24.5176V24.8569C39.5615 24.9392 39.5301 25.0008 39.4779 25.0625C39.4257 25.1243 39.3631 25.1447 39.29 25.1447H35.5388C35.4656 25.1447 35.403 25.1756 35.3506 25.227C35.2984 25.2886 35.2775 25.3504 35.2775 25.4428V25.7718C35.2775 25.8541 35.2984 25.9157 35.3506 25.9775C35.403 26.0392 35.4656 26.0598 35.5388 26.0598H39.29C39.3631 26.0598 39.4257 26.0905 39.4779 26.1418C39.5301 26.1934 39.5615 26.2653 39.5615 26.3579V26.697C39.5615 26.7792 39.5301 26.8512 39.4779 26.913C39.4257 26.9747 39.3631 26.9951 39.29 26.9951H34.9014C34.8283 26.9951 34.7656 27.026 34.7134 27.0773L34.4207 27.396V24.5073H34.4312ZM34.7029 27.9101H39.3002C39.3734 27.9101 39.4362 27.9409 39.4884 27.9924C39.5406 28.054 39.572 28.1157 39.572 28.1979V28.5473C39.572 28.6296 39.5406 28.6914 39.4884 28.7531C39.4362 28.8147 39.3734 28.8353 39.3002 28.8353H34.7029C34.6298 28.8353 34.567 28.8044 34.5148 28.7531C34.4626 28.6914 34.4417 28.6296 34.4417 28.5473V28.1979C34.4417 28.1157 34.4626 28.054 34.5148 27.9924C34.567 27.9409 34.6298 27.9101 34.7029 27.9101Z" fill="white"/>
<path d="M40.3973 28.5473V24.5073C40.3973 24.4251 40.4183 24.3531 40.4707 24.2915C40.5228 24.2298 40.5855 24.2092 40.6586 24.2092H40.9721C41.0452 24.2092 41.1079 24.2401 41.1602 24.2915C41.2124 24.3531 41.2334 24.4148 41.2334 24.5073V26.0596H42.3514C42.4245 26.0596 42.4872 26.0289 42.5394 25.9773L44.1276 24.2195H45.3292L43.4275 26.327C43.3754 26.3886 43.3544 26.4502 43.3544 26.5325C43.3544 26.6147 43.3754 26.6764 43.4275 26.738L45.3397 28.8454H44.1381L42.5498 27.0876C42.4977 27.026 42.435 27.0054 42.3619 27.0054H41.2438V28.5577C41.2438 28.6399 41.2229 28.7118 41.1707 28.7735C41.1183 28.8351 41.0557 28.8557 40.9825 28.8557H40.6691C40.596 28.8557 40.5333 28.825 40.4809 28.7735C40.4183 28.7015 40.3973 28.6296 40.3973 28.5473Z" fill="white"/>
<path d="M5.25852 10.1155C8.09769 10.1155 10.3993 7.85105 10.3993 5.05774C10.3993 2.26443 8.09769 0 5.25852 0C2.41935 0 0.117739 2.26443 0.117739 5.05774C0.117739 7.85105 2.41935 10.1155 5.25852 10.1155Z" fill="white"/>
<path d="M9.28113 33.6668L9.19755 33.5744C7.91234 32.1248 7.20184 30.2641 7.19139 28.3315L7.1705 24.7027C7.1705 22.7598 7.8601 20.8889 9.13486 19.3983L9.17664 19.3571C10.9738 17.1778 10.629 13.9705 8.41389 12.2126C6.19876 10.4547 2.93876 10.7837 1.15202 12.963C-0.394386 14.8442 -0.383939 17.5273 1.18337 19.3983L1.26696 19.4908C2.55216 20.9402 3.27311 22.8009 3.28356 24.7335L3.30445 28.3624C3.30445 30.3053 2.60439 32.1763 1.3401 33.6668L1.29831 33.708C-0.498874 35.8873 -0.154067 39.0947 2.06106 40.8629C4.27619 42.631 7.53619 42.2917 9.33336 40.1123C10.8589 38.2312 10.8484 35.5377 9.28113 33.6668Z" fill="white"/>
<path d="M27.9631 21.2382C30.8138 21.2382 33.1246 18.9647 33.1246 16.16C33.1246 13.3553 30.8138 11.0817 27.9631 11.0817C25.1123 11.0817 22.8013 13.3553 22.8013 16.16C22.8013 18.9647 25.1123 21.2382 27.9631 21.2382Z" fill="white"/>
<path d="M27.9631 41.9832C30.8138 41.9832 33.1246 39.7095 33.1246 36.9048C33.1246 34.1003 30.8138 31.8267 27.9631 31.8267C25.1123 31.8267 22.8013 34.1003 22.8013 36.9048C22.8013 39.7095 25.1123 41.9832 27.9631 41.9832Z" fill="white"/>
<path d="M20.6597 33.6669C20.6389 33.636 20.6075 33.6051 20.5761 33.5743C19.291 32.1247 18.5804 30.2641 18.57 28.3315L18.5491 24.7027C18.5491 22.7598 19.2387 20.8888 20.5134 19.3982C20.5239 19.388 20.5344 19.3674 20.5449 19.3571C22.342 17.1778 21.9971 13.9704 19.782 12.2125C17.5669 10.4444 14.3069 10.7836 12.5202 12.963C10.9738 14.8442 10.9842 17.5273 12.5515 19.3982L12.6351 19.4907C13.9308 20.9401 14.6413 22.8008 14.6622 24.7336V28.3624C14.6622 30.3053 13.9726 32.1763 12.6978 33.6669L12.656 33.7079C10.8588 35.8873 11.1932 39.0947 13.4083 40.8628C15.6235 42.6309 18.8835 42.3019 20.6806 40.1225C22.227 38.2312 22.2167 35.5377 20.6597 33.6669Z" fill="white"/>
<path d="M39.2589 21.2383C42.1097 21.2383 44.4207 18.9648 44.4207 16.1601C44.4207 13.3555 42.1097 11.0818 39.2589 11.0818C36.4082 11.0818 34.0972 13.3555 34.0972 16.1601C34.0972 18.9648 36.4082 21.2383 39.2589 21.2383Z" fill="white"/>
<path d="M61.8382 21.2383C64.689 21.2383 67 18.9648 67 16.1601C67 13.3555 64.689 11.0818 61.8382 11.0818C58.9875 11.0818 56.6767 13.3555 56.6767 16.1601C56.6767 18.9648 58.9875 21.2383 61.8382 21.2383Z" fill="white"/>
<path d="M54.5659 33.6155L54.5242 33.5745C53.1868 32.0735 52.4344 30.1512 52.4241 28.157V24.7541C52.4241 22.8011 53.1449 20.9095 54.4301 19.4189L54.472 19.3778C56.2797 17.1985 55.9453 14.0014 53.7406 12.223C51.5359 10.4445 48.2759 10.7735 46.4682 12.9426C44.9114 14.8135 44.9114 17.5069 46.4682 19.3778L46.5204 19.4189C47.8057 20.9095 48.5162 22.7908 48.5267 24.7541V28.4447C48.5267 30.3671 47.8371 32.2277 46.5935 33.708L46.5623 33.7493C44.7964 35.9593 45.183 39.1564 47.4296 40.8938C49.6759 42.631 52.9255 42.2507 54.6914 40.0406C56.2065 38.149 56.1646 35.4658 54.5659 33.6155Z" fill="white"/>
<path d="M12.6656 6.82834L12.652 6.32628C12.652 5.95811 12.7405 5.67026 12.9173 5.45605C13.0942 5.24184 13.4071 5.04101 13.8628 4.86027C14.237 4.70631 14.4955 4.53226 14.6383 4.33813C14.7812 4.14401 14.8492 3.90302 14.8492 3.61517V3.46121C14.8492 3.15328 14.7608 2.91229 14.5839 2.73155C14.407 2.55081 14.1622 2.46379 13.8492 2.46379C13.584 2.46379 13.3595 2.54412 13.1758 2.71147C12.9922 2.87882 12.9037 3.10642 12.9037 3.39427V3.51476C12.9037 3.59509 12.8493 3.63525 12.7473 3.63525C12.6452 3.63525 12.5908 3.59509 12.5908 3.51476V3.38757C12.5908 3.05956 12.7065 2.77841 12.9377 2.53742C13.169 2.29643 13.4751 2.17594 13.856 2.17594C14.2914 2.17594 14.6179 2.29643 14.8356 2.53742C15.0533 2.77841 15.1621 3.07964 15.1621 3.44113V3.59509C15.1621 3.95657 15.0805 4.25111 14.9104 4.4854C14.7403 4.7197 14.4546 4.92052 14.0533 5.08787C13.618 5.26861 13.3323 5.44266 13.1894 5.61001C13.0466 5.77736 12.9786 6.01166 12.9786 6.3062V6.68107H15.0533C15.1281 6.68107 15.1689 6.72793 15.1689 6.82164C15.1689 6.91536 15.1281 6.96222 15.0533 6.96222H12.7813C12.7065 6.96222 12.6656 6.91536 12.6656 6.82834Z" fill="white"/>
<path d="M18.4831 5.5096V3.70889C18.4831 3.32063 18.3879 3.0127 18.1975 2.7851C18.007 2.5575 17.7553 2.44371 17.4356 2.44371C17.1159 2.44371 16.8642 2.5575 16.6737 2.7851C16.4833 3.0127 16.388 3.32063 16.388 3.70889V5.5096C16.388 5.89786 16.4833 6.20579 16.6737 6.42669C16.8642 6.6476 17.1159 6.7614 17.4356 6.7614C17.7553 6.7614 18.007 6.6476 18.1975 6.42669C18.3879 6.20579 18.4831 5.89786 18.4831 5.5096ZM18.7961 3.71558L18.7825 5.50291C18.7825 5.9648 18.66 6.33967 18.4083 6.62082C18.1566 6.90197 17.8301 7.04255 17.4288 7.04255C17.0275 7.04255 16.7009 6.90197 16.4493 6.62082C16.1976 6.33967 16.0751 5.9648 16.0751 5.50291V3.71558C16.0751 3.25369 16.2044 2.87882 16.4561 2.59767C16.7077 2.31652 17.0343 2.17594 17.4356 2.17594C17.8369 2.17594 18.1634 2.31652 18.4151 2.59767C18.6668 2.87882 18.7961 3.25369 18.7961 3.71558Z" fill="white"/>
<path d="M19.9064 6.82834L19.8928 6.32628C19.8928 5.95811 19.9812 5.67026 20.1581 5.45605C20.3349 5.24184 20.6478 5.04101 21.1036 4.86027C21.4777 4.70631 21.7362 4.53226 21.879 4.33813C22.0219 4.14401 22.0899 3.90302 22.0899 3.61517V3.46121C22.0899 3.15328 22.0015 2.91229 21.8246 2.73155C21.6478 2.55081 21.4029 2.46379 21.09 2.46379C20.8247 2.46379 20.6002 2.54412 20.4165 2.71147C20.2329 2.87882 20.1444 3.10642 20.1444 3.39427V3.51476C20.1444 3.59509 20.09 3.63525 19.988 3.63525C19.886 3.63525 19.8315 3.59509 19.8315 3.51476V3.38757C19.8315 3.05956 19.9472 2.77841 20.1785 2.53742C20.4097 2.29643 20.7158 2.17594 21.0968 2.17594C21.5321 2.17594 21.8586 2.29643 22.0763 2.53742C22.294 2.77841 22.4028 3.07964 22.4028 3.44113V3.59509C22.4028 3.95657 22.3212 4.25111 22.1511 4.4854C21.9811 4.7197 21.6954 4.92052 21.294 5.08787C20.8587 5.26861 20.573 5.44266 20.4301 5.61001C20.2873 5.77736 20.2193 6.01166 20.2193 6.3062V6.68107H22.294C22.3688 6.68107 22.4096 6.72793 22.4096 6.82164C22.4096 6.91536 22.3688 6.96222 22.294 6.96222H20.022C19.9472 6.96222 19.9064 6.91536 19.9064 6.82834Z" fill="white"/>
<path d="M25.6899 3.4746L25.6831 3.42774C25.6763 3.1332 25.5878 2.8989 25.411 2.72486C25.2341 2.55081 25.0028 2.46379 24.7171 2.46379C24.4042 2.46379 24.1593 2.5642 23.9825 2.77172C23.8056 2.97923 23.7172 3.26038 23.7172 3.62187V4.35152C24.0505 4.19756 24.3974 4.12392 24.7579 4.12392C25.1865 4.12392 25.513 4.24442 25.7443 4.47871C25.9756 4.713 26.0912 5.0611 26.0912 5.52299V5.65018C26.0912 6.08529 25.9688 6.42669 25.7239 6.67437C25.479 6.92205 25.1525 7.04924 24.7511 7.04924C24.3498 7.04924 24.0233 6.92205 23.7784 6.67437C23.5335 6.42669 23.4111 6.08529 23.4111 5.65018V3.62856C23.4111 3.19344 23.5199 2.83866 23.7444 2.57089C23.9689 2.30313 24.2954 2.16925 24.7239 2.16925C25.1117 2.16925 25.4246 2.28974 25.6558 2.53073C25.8871 2.77172 26.0028 3.05287 26.0028 3.38088V3.4746C26.0028 3.55492 25.9483 3.59509 25.8463 3.59509C25.7443 3.59509 25.6899 3.55492 25.6899 3.4746ZM24.7443 6.78148L24.7307 6.78817C25.0368 6.78817 25.2885 6.68776 25.479 6.49363C25.6695 6.2995 25.7647 6.02505 25.7647 5.67026V5.52968C25.7647 4.78664 25.4178 4.41846 24.7171 4.41846C24.343 4.41846 24.0097 4.4921 23.7104 4.63937V5.67026C23.7104 6.02505 23.8056 6.2995 23.9961 6.49363C24.1866 6.68776 24.4382 6.78148 24.7443 6.78148Z" fill="white"/>
<path d="M28.9105 8.25418V1.86132C28.9105 1.7743 28.9581 1.73413 29.0533 1.73413C29.1418 1.73413 29.1894 1.7743 29.1894 1.86132V8.25418C29.1894 8.3412 29.1418 8.38137 29.0533 8.38137C28.9581 8.38137 28.9105 8.3412 28.9105 8.25418Z" fill="white"/>
<path d="M33.7042 6.7614C34.0443 6.7614 34.3232 6.65429 34.5409 6.43339C34.7585 6.21248 34.8674 5.91794 34.8674 5.54307V2.32321C34.8674 2.23619 34.9218 2.19602 35.0238 2.19602C35.1259 2.19602 35.1803 2.23619 35.1803 2.32321V5.53638C35.1803 5.99827 35.0442 6.36645 34.7653 6.6409C34.4865 6.91536 34.1327 7.04924 33.7042 7.04924C33.2756 7.04924 32.9219 6.91536 32.643 6.6409C32.3641 6.36645 32.2281 5.99827 32.2281 5.53638V2.32321C32.2281 2.23619 32.2825 2.19602 32.3845 2.19602C32.4866 2.19602 32.541 2.23619 32.541 2.32321V5.54307C32.541 5.91794 32.6498 6.21248 32.8675 6.43339C33.0852 6.65429 33.3641 6.7614 33.7042 6.7614Z" fill="white"/>
<path d="M37.4879 4.47871L37.4947 4.47202C37.9232 4.09045 38.2089 3.76914 38.3449 3.50807C38.481 3.247 38.549 2.95915 38.549 2.64453V2.52403H36.4063C36.3315 2.52403 36.2907 2.47718 36.2907 2.38346C36.2907 2.28974 36.3315 2.24288 36.4063 2.24288H38.7463C38.8211 2.24288 38.8619 2.28974 38.8619 2.38346V2.57089C38.8619 2.97923 38.7871 3.32733 38.6374 3.61517C38.4878 3.90302 38.1613 4.27119 37.6511 4.7197C37.2226 5.10126 36.9369 5.42927 36.794 5.70373C36.6512 5.97819 36.5832 6.27273 36.5832 6.58735V6.68107H38.8891C38.964 6.68107 39.0048 6.72793 39.0048 6.82164C39.0048 6.91536 38.964 6.96222 38.8891 6.96222H36.3859C36.3111 6.96222 36.2702 6.91536 36.2702 6.82164V6.66768C36.2702 6.25934 36.3451 5.90455 36.5015 5.60332C36.658 5.30208 36.9845 4.92721 37.4879 4.47871Z" fill="white"/>
<path d="M39.9934 6.80826L39.9798 2.42362C39.9798 2.37676 39.9934 2.3366 40.0206 2.30313C40.0479 2.26966 40.0887 2.25627 40.1363 2.25627H41.5512C41.9253 2.25627 42.2178 2.36338 42.4287 2.58428C42.6395 2.80519 42.7484 3.09973 42.7484 3.4679C42.7484 3.96996 42.5307 4.31805 42.1021 4.51887C42.5987 4.70631 42.8504 5.09457 42.8504 5.68365C42.8504 6.04513 42.7416 6.34636 42.5171 6.59404C42.2926 6.84173 41.9865 6.96222 41.5988 6.96222H40.1431C40.0955 6.96222 40.0615 6.94883 40.0343 6.92205C40.007 6.89528 39.9934 6.85511 39.9934 6.80826ZM41.66 4.67953L40.2995 4.68623V6.70115H41.5988C41.9117 6.70115 42.1498 6.60074 42.3062 6.39992C42.4627 6.19909 42.5443 5.95811 42.5443 5.68365C42.5443 5.41588 42.4695 5.18159 42.313 4.98077C42.1566 4.77994 41.9389 4.67953 41.66 4.67953ZM41.558 2.55081L40.2927 2.5575V4.41177H41.558C41.8437 4.41177 42.0613 4.32475 42.211 4.14401C42.3606 3.96326 42.4355 3.74236 42.4355 3.48129C42.4355 3.22022 42.3606 2.99932 42.211 2.81857C42.0613 2.63783 41.8437 2.55081 41.558 2.55081Z" fill="white"/>
<path d="M44.2323 2.53073V4.38499H46.0213C46.0961 4.38499 46.1369 4.43185 46.1369 4.52557C46.1369 4.61929 46.0961 4.66614 46.0213 4.66614H44.2323V6.68107H46.2322C46.307 6.68107 46.3478 6.72793 46.3478 6.82834C46.3478 6.91536 46.307 6.96222 46.2322 6.96222H44.035C43.9602 6.96222 43.9194 6.91536 43.9194 6.82834V2.39015C43.9194 2.29643 43.9602 2.24958 44.035 2.24958H46.1981C46.273 2.24958 46.3138 2.29643 46.3138 2.39015C46.3138 2.48387 46.273 2.53073 46.1981 2.53073H44.2323Z" fill="white"/>
<path d="M49.6401 2.678L49.6265 2.32991C49.6265 2.24288 49.6809 2.20272 49.783 2.20272C49.885 2.20272 49.9394 2.24288 49.9394 2.32991V2.6713C49.9394 3.38757 49.6537 3.96326 49.0823 4.39838C49.47 4.77994 49.7353 5.11465 49.8782 5.40919C50.021 5.70373 50.0959 6.05852 50.0959 6.47355V6.90197C50.0959 6.9823 50.0414 7.02247 49.9394 7.02247C49.8374 7.02247 49.783 6.9823 49.783 6.90197V6.54049C49.783 6.14554 49.7149 5.81084 49.5857 5.53638C49.4564 5.26192 49.2048 4.9406 48.8374 4.56573C48.7762 4.5992 48.681 4.65276 48.5517 4.72639L48.2252 4.91383L47.9395 5.08787C47.8375 5.15481 47.7627 5.21506 47.7083 5.26861C47.6538 5.32217 47.6266 5.36902 47.6266 5.40919V6.89528C47.6266 6.97561 47.5722 7.01577 47.4702 7.01577C47.3681 7.01577 47.3137 6.97561 47.3137 6.89528V2.32321C47.3137 2.23619 47.3681 2.19602 47.4702 2.19602C47.5722 2.19602 47.6266 2.23619 47.6266 2.32321V4.97407C47.6606 4.92721 47.7287 4.87366 47.8307 4.81342L47.9327 4.75317C48.5721 4.39169 49.0143 4.07037 49.266 3.78252C49.5177 3.49468 49.6401 3.1265 49.6401 2.678Z" fill="white"/>
<path d="M51.2281 6.92205V2.32321C51.2281 2.23619 51.2825 2.19602 51.3846 2.19602C51.4866 2.19602 51.541 2.23619 51.541 2.32321V6.92205C51.541 7.00238 51.4866 7.04255 51.3846 7.04255C51.2825 7.04255 51.2281 7.00238 51.2281 6.92205Z" fill="white"/>
<path d="M52.7321 5.76398L52.7185 5.66356C52.7185 5.58324 52.7729 5.54307 52.8749 5.54307C52.9769 5.54307 53.0314 5.58324 53.0314 5.66356V5.7372C53.0314 6.02505 53.1402 6.26603 53.3579 6.46686C53.5756 6.66768 53.8408 6.76809 54.1605 6.76809C54.4871 6.76809 54.7523 6.68107 54.9496 6.51372C55.1469 6.34636 55.2489 6.11207 55.2489 5.81083C55.2489 5.51629 55.1537 5.27531 54.9564 5.09457C54.7591 4.91383 54.4598 4.77325 54.0585 4.67284C53.1606 4.43855 52.7117 4.00343 52.7117 3.36749C52.7117 3.0194 52.8409 2.73155 53.0994 2.51065C53.3579 2.28974 53.6844 2.17594 54.0721 2.17594C54.5075 2.17594 54.8476 2.29643 55.0925 2.54412C55.3373 2.7918 55.4598 3.07964 55.4598 3.40765V3.52815C55.4598 3.61517 55.4054 3.65534 55.3033 3.65534C55.2013 3.65534 55.1469 3.61517 55.1469 3.52815V3.42774C55.1469 3.14658 55.0516 2.91229 54.8544 2.73155C54.6571 2.55081 54.3918 2.45709 54.0585 2.45709C53.766 2.45709 53.5211 2.53742 53.3239 2.69808C53.1266 2.85874 53.0246 3.07964 53.0246 3.3541C53.0246 3.83608 53.3987 4.17748 54.1469 4.3783C54.6299 4.50549 54.9836 4.67953 55.2149 4.90044C55.4462 5.12134 55.5618 5.42258 55.5618 5.80414C55.5618 6.17232 55.4394 6.47355 55.1877 6.70115C54.936 6.92875 54.5959 7.04255 54.1673 7.04255C53.7388 7.04255 53.3919 6.91536 53.1266 6.66099C52.8613 6.40661 52.7321 6.10538 52.7321 5.76398Z" fill="white"/>
<path d="M57.4935 6.89528V2.53073H56.235C56.1602 2.53073 56.1194 2.48387 56.1194 2.39015C56.1194 2.29643 56.1602 2.24958 56.235 2.24958H59.0648C59.1396 2.24958 59.1804 2.29643 59.1804 2.39015C59.1804 2.48387 59.1396 2.53073 59.0648 2.53073H57.8064V6.89528C57.8064 6.97561 57.7519 7.01577 57.6499 7.01577C57.5479 7.01577 57.4935 6.97561 57.4935 6.89528Z" fill="white"/>
<path d="M60.0187 7.01577L60.0119 7.02247C59.9099 7.02247 59.8554 6.9823 59.8554 6.90197V3.68881C59.8554 3.22691 59.9983 2.85874 60.2772 2.58428C60.5561 2.30982 60.9098 2.16925 61.3384 2.16925C61.7669 2.16925 62.1206 2.30313 62.3995 2.57759C62.6784 2.85204 62.8212 3.22022 62.8212 3.68211V6.89528C62.8212 6.97561 62.7668 7.01577 62.6648 7.01577C62.5628 7.01577 62.5083 6.97561 62.5083 6.89528V5.09457H60.1752V6.89528C60.1752 6.97561 60.1207 7.01577 60.0187 7.01577ZM61.3384 2.45709L61.3247 2.47048C60.9846 2.47048 60.7057 2.57759 60.4881 2.79849C60.2704 3.0194 60.1615 3.31394 60.1615 3.68881V4.8268H62.4947V3.68881C62.4947 3.31394 62.3859 3.0127 62.1682 2.7918C61.9506 2.57089 61.6717 2.45709 61.3384 2.45709Z" fill="white"/>
<path d="M65.5302 2.4504L65.5098 2.47048C65.1696 2.47048 64.8907 2.57759 64.6731 2.79849C64.4554 3.0194 64.3466 3.31394 64.3466 3.68881V6.90867C64.3466 6.989 64.2921 7.02916 64.1901 7.02916C64.0881 7.02916 64.0336 6.989 64.0336 6.90867V3.6955C64.0336 3.23361 64.1765 2.86543 64.4554 2.59097C64.7343 2.31652 65.088 2.17594 65.5166 2.17594C65.9451 2.17594 66.2988 2.30982 66.5777 2.58428C66.8566 2.85874 66.9995 3.22691 66.9995 3.68881V6.90197C66.9995 6.9823 66.945 7.02247 66.843 7.02247C66.741 7.02247 66.6865 6.9823 66.6865 6.90197V3.68211C66.6865 3.30724 66.5777 3.00601 66.36 2.7851C66.1424 2.5642 65.8635 2.4504 65.5302 2.4504Z" fill="white"/>
</svg>
