<svg width="96" height="62" viewBox="0 0 96 62" fill="none" xmlns="http://www.w3.org/2000/svg">
<g clip-path="url(#clip0_118_6717)">
<path d="M27.0539 25.1656C27.0539 26.3439 27.1816 27.2995 27.4052 28.0001C27.6606 28.7007 27.9799 29.4651 28.4268 30.2931C28.5865 30.5479 28.6504 30.8028 28.6504 31.0256C28.6504 31.3441 28.4588 31.6625 28.0438 31.9811L26.0323 33.3187C25.7449 33.5098 25.4576 33.6053 25.2021 33.6053C24.8828 33.6053 24.5635 33.4461 24.2442 33.1595C23.7972 32.6818 23.4142 32.1722 23.0949 31.6625C22.7756 31.1212 22.4563 30.516 22.105 29.7835C19.6146 32.7136 16.4856 34.1786 12.7181 34.1786C10.0361 34.1786 7.89691 33.4143 6.33242 31.8856C4.76793 30.3569 3.96973 28.3185 3.96973 25.7706C3.96973 23.0635 4.92758 20.8661 6.87521 19.2099C8.82284 17.5538 11.409 16.7258 14.6977 16.7258C15.7832 16.7258 16.9008 16.8213 18.0821 16.9806C19.2635 17.1398 20.4766 17.3946 21.7538 17.6812V15.3563C21.7538 12.9358 21.243 11.2479 20.2532 10.2606C19.2315 9.27328 17.5074 8.79556 15.0489 8.79556C13.9314 8.79556 12.782 8.92295 11.6006 9.20959C10.4193 9.49622 9.26984 9.84655 8.15235 10.2924C7.64149 10.5154 7.25834 10.6428 7.03485 10.7064C6.81135 10.7702 6.65171 10.802 6.524 10.802C6.077 10.802 5.8535 10.4835 5.8535 9.8147V8.25414C5.8535 7.74457 5.91736 7.36239 6.077 7.13944C6.23665 6.91651 6.524 6.69358 6.97099 6.47063C8.08849 5.89737 9.42949 5.41964 10.994 5.03746C12.5585 4.62344 14.2187 4.43235 15.9748 4.43235C19.7743 4.43235 22.552 5.29225 24.3401 7.01206C26.0962 8.73187 26.99 11.3434 26.99 14.8467V25.1656H27.0539ZM14.091 30.0065C15.1447 30.0065 16.2302 29.8154 17.3797 29.4332C18.5291 29.051 19.5508 28.3504 20.4128 27.3949C20.9237 26.7898 21.3068 26.1211 21.4984 25.3566C21.69 24.5922 21.8177 23.6687 21.8177 22.5859V21.2482C20.8918 21.0254 19.902 20.8342 18.8803 20.7068C17.8585 20.5795 16.8688 20.5157 15.879 20.5157C13.7398 20.5157 12.1753 20.9298 11.1217 21.7897C10.0681 22.6495 9.55719 23.8597 9.55719 25.4522C9.55719 26.949 9.94034 28.0638 10.7385 28.8282C11.5048 29.6244 12.6223 30.0065 14.091 30.0065ZM39.7296 33.4461C39.1548 33.4461 38.7717 33.3505 38.5162 33.1277C38.2608 32.9365 38.0373 32.4906 37.8458 31.8856L30.3426 7.26684C30.151 6.62987 30.0552 6.21585 30.0552 5.99292C30.0552 5.48334 30.3106 5.19671 30.8215 5.19671H33.9505C34.5572 5.19671 34.9722 5.29225 35.1957 5.51519C35.4511 5.70628 35.6427 6.15216 35.8343 6.75727L41.1982 27.8408L46.1791 6.75727C46.3387 6.1203 46.5303 5.70628 46.7857 5.51519C47.0411 5.3241 47.4882 5.19671 48.0629 5.19671H50.6171C51.2237 5.19671 51.6389 5.29225 51.8943 5.51519C52.1496 5.70628 52.3732 6.15216 52.5009 6.75727L57.5456 28.0957L63.0692 6.75727C63.2608 6.1203 63.4842 5.70628 63.7078 5.51519C63.9632 5.3241 64.3783 5.19671 64.953 5.19671H67.9224C68.4331 5.19671 68.7206 5.45149 68.7206 5.99292C68.7206 6.15216 68.6886 6.31139 68.6567 6.50249C68.6247 6.69358 68.5609 6.94836 68.4331 7.29869L60.7384 31.9174C60.5468 32.5543 60.3234 32.9684 60.0679 33.1595C59.8125 33.3505 59.3975 33.478 58.8546 33.478H56.1088C55.5022 33.478 55.0872 33.3824 54.8317 33.1595C54.5763 32.9365 54.3527 32.5225 54.225 31.8856L49.2761 11.3434L44.3592 31.8537C44.1996 32.4906 44.008 32.9046 43.7526 33.1277C43.4971 33.3505 43.0501 33.4461 42.4754 33.4461H39.7296ZM80.7576 34.306C79.0973 34.306 77.4371 34.1149 75.8406 33.7327C74.2442 33.3505 72.9989 32.9365 72.1689 32.4588C71.658 32.1722 71.3067 31.8537 71.1791 31.5671C71.0514 31.2804 70.9875 30.9619 70.9875 30.6753V29.051C70.9875 28.3823 71.2428 28.0638 71.7218 28.0638C71.9134 28.0638 72.105 28.0957 72.2966 28.1592C72.4882 28.223 72.7755 28.3504 73.0948 28.4778C74.1804 28.9555 75.3617 29.3376 76.6069 29.5925C77.8839 29.8472 79.1293 29.9747 80.4063 29.9747C82.4178 29.9747 83.9823 29.6244 85.0679 28.9236C86.1534 28.223 86.7282 27.2039 86.7282 25.8981C86.7282 25.0063 86.4409 24.2738 85.8661 23.6687C85.2914 23.0635 84.2058 22.5222 82.6413 22.0126L78.0117 20.5795C75.681 19.847 73.9568 18.764 72.9032 17.3309C71.8496 15.9296 71.3067 14.369 71.3067 12.7129C71.3067 11.3753 71.5941 10.1969 72.1689 9.17773C72.7436 8.15859 73.5098 7.26684 74.4677 6.56618C75.4256 5.83368 76.511 5.29225 77.7882 4.91007C79.0654 4.52789 80.4063 4.36865 81.8112 4.36865C82.5136 4.36865 83.248 4.4005 83.9503 4.49605C84.6848 4.59159 85.3552 4.71898 86.0257 4.84638C86.6643 5.00562 87.2709 5.16486 87.8456 5.35595C88.4204 5.54704 88.8674 5.73813 89.1867 5.92921C89.6337 6.18401 89.953 6.43879 90.1446 6.72542C90.336 6.9802 90.4319 7.33053 90.4319 7.77641V9.27328C90.4319 9.9421 90.1764 10.2924 89.6976 10.2924C89.4421 10.2924 89.027 10.165 88.4842 9.91025C86.6643 9.08219 84.6209 8.66816 82.354 8.66816C80.534 8.66816 79.0973 8.9548 78.1075 9.55992C77.1178 10.165 76.6069 11.0886 76.6069 12.3944C76.6069 13.2862 76.9262 14.0505 77.5648 14.6556C78.2032 15.2607 79.3846 15.8659 81.0768 16.4073L85.6107 17.8405C87.9095 18.573 89.5698 19.5921 90.5596 20.8979C91.5493 22.2037 92.0282 23.7006 92.0282 25.3566C92.0282 26.7261 91.7409 27.9682 91.1982 29.051C90.6235 30.1338 89.8571 31.0893 88.8674 31.8537C87.8776 32.6499 86.6963 33.2231 85.3234 33.6371C83.8865 34.083 82.3858 34.306 80.7576 34.306Z" fill="white"/>
<path fill-rule="evenodd" clip-rule="evenodd" d="M86.7917 49.7843C76.2872 57.5234 61.0254 61.6319 47.9029 61.6319C29.5121 61.6319 12.9412 54.8482 0.425291 43.574C-0.564488 42.6822 0.329506 41.4719 1.51086 42.1727C15.0486 50.0074 31.7471 54.7528 49.0204 54.7528C60.6743 54.7528 73.4775 52.3323 85.2591 47.3638C87.0152 46.5676 88.5158 48.5104 86.7917 49.7843Z" fill="white"/>
<path fill-rule="evenodd" clip-rule="evenodd" d="M91.1665 44.8158C89.8256 43.0959 82.2904 43.9877 78.8742 44.4017C77.8524 44.5292 77.6928 43.6374 78.6187 42.9686C84.6212 38.7645 94.4871 39.9748 95.6365 41.3762C96.786 42.8093 95.3173 52.6504 89.6979 57.364C88.8358 58.0965 88.0057 57.7143 88.3888 56.7588C89.6659 53.6058 92.5076 46.5038 91.1665 44.8158Z" fill="white"/>
</g>
<defs>
<clipPath id="clip0_118_6717">
<rect width="96" height="62" fill="white"/>
</clipPath>
</defs>
</svg>
