<svg width="24" height="24" viewBox="0 0 24 24" fill="none" xmlns="http://www.w3.org/2000/svg">
<path d="M17.5207 7.27006C18.4688 6.21253 21.9044 2.37917 22.8901 1.26419C23.159 0.959956 23.1451 0.584909 22.8527 0.260903C22.8378 0.244337 22.8214 0.228957 22.8036 0.214919C22.4575 -0.0587668 22.057 -0.0717724 21.7322 0.179979C20.5413 1.10307 16.4471 4.32062 15.3184 5.20779L14.9034 4.81917L17.8405 2.06884C17.9587 1.95814 17.9941 1.79165 17.9301 1.64704C17.8661 1.50237 17.7154 1.40808 17.5482 1.40808C12.8609 1.40808 8.45417 3.11729 5.13975 6.22089C1.82532 9.32449 0 13.4509 0 17.84C0 18.4372 0.0345023 19.0336 0.10279 19.6253C0.103121 19.6291 0.103562 19.6328 0.104003 19.6366C0.173945 20.2386 0.278885 20.8356 0.418492 21.4234C0.461317 21.6038 0.63212 21.7265 0.821608 21.7265C0.851315 21.7265 0.881518 21.7234 0.911722 21.7172C1.13461 21.6708 1.2751 21.464 1.22549 21.2553C1.12634 20.838 1.04554 20.4157 0.983206 19.9903C2.88161 20.0847 4.16789 20.7474 5.63942 21.5064C7.79345 22.6173 10.4742 24 16.0353 24C16.2636 24 16.4486 23.8267 16.4486 23.6129C16.4486 21.6359 15.4452 20.3145 14.3829 18.9155C13.4827 17.7301 12.5519 16.5043 12.1977 14.7738C12.1548 14.5638 11.9382 14.4262 11.714 14.4665C11.4898 14.5067 11.3428 14.7095 11.3858 14.9195C11.7738 16.8156 12.802 18.1696 13.7092 19.3642C14.6565 20.6117 15.4847 21.7022 15.6066 23.2231C10.553 23.1569 8.1582 21.9216 6.03835 20.8283C4.5063 20.0381 3.05417 19.2898 0.890502 19.2114C0.848283 18.756 0.826678 18.2983 0.826678 17.84C0.826678 9.52984 7.77598 2.71097 16.5188 2.21159L14.0264 4.54548C13.8649 4.69665 13.8649 4.94174 14.0264 5.09286L15.438 6.41468C15.5995 6.56585 15.8612 6.56585 16.0226 6.41468C16.184 6.26352 16.184 6.01842 16.0226 5.86731L15.9051 5.75728C17.0936 4.82299 21.0097 1.74576 22.2234 0.804146C21.0389 2.14306 16.6882 6.99472 16.644 7.04401C16.5061 7.19776 16.5166 7.42468 16.6682 7.56661L21.7741 12.3477C21.9755 12.5364 22.0865 12.7872 22.0865 13.0541C22.0865 13.3209 21.9755 13.5718 21.7741 13.7604C21.358 14.15 20.6813 14.1499 20.2652 13.7604C20.2104 13.7091 20.1413 13.6733 20.0658 13.657L15.3153 12.6318C15.2182 12.6109 15.1163 12.6235 15.0282 12.6673C13.4578 13.45 11.5566 13.1838 10.2974 12.0047C9.02159 10.8101 8.75224 8.95109 9.64247 7.48404C9.75529 7.29814 9.68579 7.06187 9.48732 6.95622C9.28884 6.85058 9.03647 6.91571 8.9237 7.10156C7.85016 8.87053 8.17474 11.1119 9.71279 12.5521C10.4619 13.2535 11.4107 13.6975 12.4569 13.8363C13.4158 13.9633 14.4107 13.8149 15.2762 13.4179L19.772 14.388C20.1279 14.6802 20.5738 14.8263 21.0196 14.8263C21.5045 14.8263 21.9895 14.6535 22.3586 14.3079C22.7163 13.973 22.9132 13.5277 22.9132 13.0541C22.9132 12.5804 22.7163 12.1351 22.3586 11.8003L17.5207 7.27006Z" fill="white"/>
</svg>
